<svg width="535" height="90" viewBox="0 0 535 90" fill="none" xmlns="http://www.w3.org/2000/svg">
<circle cx="527" cy="8.88123" r="8" fill="#F3F80C"/>
<path fill-rule="evenodd" clip-rule="evenodd" d="M82.0002 17.652C67.8093 20.8275 58.4722 33.6608 58.4722 53.2652C58.4722 72.8697 67.8093 86.0593 82.0002 89.3335V78.8917C74.4705 75.3805 69.8962 66.0889 69.8962 53.2652C69.8962 40.367 74.4705 31.4061 82.0002 28.0465V17.652ZM98.0002 78.0333C104.602 74.0083 108.584 65.1549 108.584 53.2652C108.584 41.3065 104.602 32.7324 98.0002 28.8691V18.0591C111.306 21.8202 120.008 34.4115 120.008 53.2652C120.008 72.119 111.306 85.0398 98.0002 88.914V78.0333Z" fill="black"/>
<path fill-rule="evenodd" clip-rule="evenodd" d="M11.448 88.8812H0.312012V53.1664H11.448V53.1692H21.048C32.376 53.1692 37.752 48.8492 37.752 39.5372C37.752 30.2252 31.896 27.1532 20.664 27.1532H11.448V27.1547H0.312012V18.1292H21.72C37.464 18.1292 48.696 23.6012 48.696 39.5372C48.696 54.9932 37.464 62.0972 22.104 62.0972H11.448V88.8812Z" fill="black"/>
<path fill-rule="evenodd" clip-rule="evenodd" d="M145.468 88.8812H134.332V51.4359H145.468V51.4412H156.124C166.396 51.4412 171.964 47.2172 171.964 38.6732C171.964 30.1292 166.396 27.1532 156.124 27.1532H145.468V27.1547H134.332V18.1292H157.468C172.06 18.1292 183.004 23.4092 183.004 38.6732C183.004 49.6172 177.148 56.1452 168.22 58.9292L185.5 88.8812H172.924L156.892 60.3692H145.468V88.8812Z" fill="black"/>
<path fill-rule="evenodd" clip-rule="evenodd" d="M265.448 88.8812H254.312V49.1234H265.448V49.1372H291.56V58.4492H265.448V88.8812ZM265.45 27.5372V49.1234H265.448V27.5372H265.45ZM265.45 27.5372V27.5347H254.312V18.1292H296.168V27.5372H265.45ZM254.312 27.5347V49.1234H254.312V27.5347H254.312Z" fill="black"/>
<path fill-rule="evenodd" clip-rule="evenodd" d="M221.848 88.8812H210.712V49.1234H221.848V88.8812ZM228.948 27.5372V27.5347H205.563V27.5372H189.976V18.1292H242.68V27.5372H228.948Z" fill="black"/>
<path fill-rule="evenodd" clip-rule="evenodd" d="M328 17.652C313.809 20.8275 304.472 33.6608 304.472 53.2652C304.472 72.8697 313.809 86.0593 328 89.3335V78.8917C320.47 75.3805 315.896 66.0889 315.896 53.2652C315.896 40.367 320.47 31.4061 328 28.0465V17.652ZM344 78.0333C350.602 74.0083 354.584 65.1549 354.584 53.2652C354.584 41.3065 350.602 32.7324 344 28.8691V18.0591C357.306 21.8202 366.008 34.4115 366.008 53.2652C366.008 72.119 357.306 85.0398 344 88.914V78.0333Z" fill="black"/>
<path fill-rule="evenodd" clip-rule="evenodd" d="M482 17.652C467.809 20.8275 458.472 33.6608 458.472 53.2652C458.472 72.8697 467.809 86.0593 482 89.3335V78.8917C474.47 75.3805 469.896 66.0889 469.896 53.2652C469.896 40.367 474.47 31.4061 482 28.0465V17.652ZM498 78.0333C504.602 74.0083 508.584 65.1549 508.584 53.2652C508.584 41.3065 504.602 32.7324 498 28.8691V18.0591C511.306 21.8202 520.008 34.4115 520.008 53.2652C520.008 72.119 511.306 85.0398 498 88.914V78.0333Z" fill="black"/>
<path fill-rule="evenodd" clip-rule="evenodd" d="M421.4 88.8812H380.312V18.1292H391.448V79.4732H421.4V88.8812Z" fill="black"/>
<path fill-rule="evenodd" clip-rule="evenodd" d="M444.448 88.8812H433.312V18.1292H444.448V88.8812Z" fill="black"/>
</svg>
