<svg width="544" height="140" viewBox="0 0 544 140" fill="none" xmlns="http://www.w3.org/2000/svg">
<path d="M498.192 113.129C516.336 113.129 529.008 99.0172 529.008 76.2652C529.008 53.5132 516.336 39.8812 498.192 39.8812C480.048 39.8812 467.472 53.5132 467.472 76.2652C467.472 99.0172 480.048 113.129 498.192 113.129ZM498.192 103.433C486.48 103.433 478.896 92.7772 478.896 76.2652C478.896 59.6572 486.48 49.5772 498.192 49.5772C509.904 49.5772 517.584 59.6572 517.584 76.2652C517.584 92.7772 509.904 103.433 498.192 103.433Z" fill="black"/>
<path d="M442.312 111.881H453.448V41.1292H442.312V111.881Z" fill="black"/>
<path d="M389.312 111.881H430.4V102.473H400.448V41.1292H389.312V111.881Z" fill="black"/>
<path d="M344.192 113.129C362.336 113.129 375.008 99.0172 375.008 76.2652C375.008 53.5132 362.336 39.8812 344.192 39.8812C326.048 39.8812 313.472 53.5132 313.472 76.2652C313.472 99.0172 326.048 113.129 344.192 113.129ZM344.192 103.433C332.48 103.433 324.896 92.7772 324.896 76.2652C324.896 59.6572 332.48 49.5772 344.192 49.5772C355.904 49.5772 363.584 59.6572 363.584 76.2652C363.584 92.7772 355.904 103.433 344.192 103.433Z" fill="black"/>
<path d="M263.312 111.881H274.448V81.4492H300.56V72.1372H274.448V50.5372H305.168V41.1292H263.312V111.881Z" fill="black"/>
<path d="M219.712 111.881H230.848V50.5372H251.68V41.1292H198.976V50.5372H219.712V111.881Z" fill="black"/>
<path d="M143.332 111.881H154.468V83.3692H165.892L181.924 111.881H194.5L177.22 81.9292C186.148 79.1452 192.004 72.6172 192.004 61.6732C192.004 46.4092 181.06 41.1292 166.468 41.1292H143.332V111.881ZM154.468 74.4412V50.1532H165.124C175.396 50.1532 180.964 53.1292 180.964 61.6732C180.964 70.2172 175.396 74.4412 165.124 74.4412H154.468Z" fill="black"/>
<path d="M98.192 113.129C116.336 113.129 129.008 99.0172 129.008 76.2652C129.008 53.5132 116.336 39.8812 98.192 39.8812C80.048 39.8812 67.472 53.5132 67.472 76.2652C67.472 99.0172 80.048 113.129 98.192 113.129ZM98.192 103.433C86.48 103.433 78.896 92.7772 78.896 76.2652C78.896 59.6572 86.48 49.5772 98.192 49.5772C109.904 49.5772 117.584 59.6572 117.584 76.2652C117.584 92.7772 109.904 103.433 98.192 103.433Z" fill="black"/>
<path d="M9.312 111.881H20.448V85.0972H31.104C46.464 85.0972 57.696 77.9932 57.696 62.5372C57.696 46.6012 46.464 41.1292 30.72 41.1292H9.312V111.881ZM20.448 76.1692V50.1532H29.664C40.896 50.1532 46.752 53.2252 46.752 62.5372C46.752 71.8492 41.376 76.1692 30.048 76.1692H20.448Z" fill="black"/>
<circle cx="536" cy="31.8812" r="8" fill="#F3F80C"/>
<rect x="91" y="16.8812" width="16" height="108" fill="white"/>
<rect x="5.95459" y="50.1547" width="18.0829" height="26.0117" fill="white"/>
<rect x="139.626" y="50.1547" width="18.0829" height="24.2812" fill="white"/>
<rect x="262.656" y="50.5347" width="23.3853" height="21.5887" fill="white"/>
<rect x="214.562" y="50.5347" width="23.3853" height="21.5887" fill="white"/>
<rect x="337" y="16.8812" width="16" height="108" fill="white"/>
<rect x="491" y="16.8812" width="16" height="108" fill="white"/>
</svg>
